<?xml version="1.0" standalone="no"?>
<!DOCTYPE svg PUBLIC "-//W3C//DTD SVG 20010904//EN"
 "http://www.w3.org/TR/2001/REC-SVG-20010904/DTD/svg10.dtd">
<svg version="1.0" xmlns="http://www.w3.org/2000/svg"
 width="1308.000000pt" height="860.000000pt" viewBox="0 0 1308.000000 860.000000"
 preserveAspectRatio="xMidYMid meet">
<metadata>
Created by potrace 1.16, written by Peter Selinger 2001-2019
</metadata>
<g transform="translate(0.000000,860.000000) scale(0.100000,-0.100000)"
fill="#000000" stroke="none">
<path d="M6322 6373 c-84 -313 -212 -792 -286 -1066 l-133 -498 61 3 61 3 282
1050 c155 578 282 1056 282 1063 1 8 -17 12 -57 12 l-59 0 -151 -567z"/>
<path d="M5815 6654 c-296 -60 -478 -212 -562 -469 -35 -108 -43 -270 -19
-379 64 -286 279 -447 643 -481 l72 -7 11 44 c6 23 13 50 16 59 4 14 -9 17
-78 23 -354 30 -553 214 -551 511 1 156 55 303 151 406 66 72 126 110 227 146
74 26 91 27 235 27 145 0 160 -2 225 -27 39 -15 74 -29 79 -30 8 -2 35 81 36
109 0 14 -63 38 -150 59 -60 14 -281 20 -335 9z"/>
<path d="M6560 6526 c-5 -13 -12 -40 -15 -60 l-7 -36 577 -2 578 -3 -448 -342
c-441 -337 -448 -342 -474 -328 -14 8 -98 70 -186 139 l-160 124 -18 -60 c-10
-33 -17 -61 -15 -62 2 -2 64 -49 138 -107 74 -57 155 -114 179 -126 54 -28
112 -29 166 -4 22 11 240 172 485 360 245 187 448 341 452 341 3 0 -8 -55 -26
-122 -18 -68 -82 -305 -141 -528 -59 -223 -112 -411 -118 -417 -7 -10 -150
-13 -653 -13 l-644 0 -10 -24 c-5 -13 -12 -40 -15 -60 l-7 -36 654 0 655 0 43
23 c87 46 84 37 255 677 144 537 156 588 146 622 -22 72 19 68 -718 68 l-663
0 -10 -24z"/>
<path d="M5783 6356 c-59 -19 -103 -49 -154 -103 -91 -98 -131 -199 -132 -333
0 -161 74 -260 216 -290 82 -17 181 7 241 59 15 13 20 13 24 2 2 -7 17 -27 31
-44 l27 -30 99 344 c54 189 100 350 102 357 4 9 -13 12 -65 12 -70 0 -70 0
-77 -30 -4 -16 -8 -30 -9 -30 -2 0 -21 17 -43 38 -62 60 -163 78 -260 48z
m188 -118 c50 -28 69 -70 69 -150 0 -140 -66 -280 -153 -324 -41 -22 -114 -20
-146 3 -48 36 -63 78 -58 173 8 151 58 253 147 298 56 28 92 28 141 0z"/>
<path d="M9669 4288 c-258 -184 -482 -414 -602 -618 -34 -57 -34 -43 0 99 l27
114 -20 36 c-10 19 -32 45 -49 56 -24 16 -31 29 -32 59 -3 50 -36 99 -93 137
-60 40 -129 59 -219 59 l-76 0 -34 -172 c-18 -95 -35 -176 -37 -180 -8 -13
-94 80 -94 102 0 106 -195 230 -363 230 -44 0 -45 -1 -52 -37 -20 -116 -89
-419 -96 -428 -5 -5 -9 13 -9 41 0 58 -30 183 -57 240 -14 29 -24 38 -40 37
-18 -2 -24 8 -43 70 -24 79 -68 167 -83 167 -38 0 -250 -163 -377 -290 -242
-241 -434 -540 -505 -786 -16 -54 -32 -103 -36 -108 -4 -5 -6 0 -3 10 2 10 22
111 44 224 22 113 61 294 86 402 32 141 42 202 35 215 -5 10 -28 29 -50 43
-42 26 -43 30 -25 92 12 41 -117 134 -218 158 -52 12 -168 13 -186 2 -7 -5
-28 -89 -46 -188 -19 -98 -73 -375 -120 -614 -106 -540 -157 -823 -191 -1055
-14 -99 -28 -182 -31 -184 -17 -17 6 556 37 894 30 333 106 885 134 976 4 11
-5 19 -34 27 -21 7 -46 12 -55 12 -19 0 -20 15 -2 98 14 62 13 63 -9 72 -168
64 -378 42 -532 -56 -79 -50 -103 -92 -177 -311 -38 -109 -72 -202 -77 -207
-12 -13 -11 126 1 274 5 63 7 116 5 118 -2 2 -25 7 -51 10 l-47 5 7 78 c6 77
6 78 -21 96 -22 14 -47 18 -123 17 -215 -3 -416 -118 -463 -266 -65 -209 -265
-1055 -332 -1410 -40 -208 -43 -223 -50 -217 -6 7 13 520 25 684 22 298 61
614 101 824 23 118 22 121 -48 121 -24 0 -43 5 -43 11 0 5 5 42 11 81 10 64 9
72 -8 89 -65 65 -328 29 -489 -67 -96 -57 -140 -107 -175 -199 -170 -436 -362
-1094 -459 -1573 -48 -236 -52 -300 -22 -358 34 -67 146 -153 200 -154 8 0 34
-18 60 -40 49 -44 134 -75 174 -65 23 6 25 14 42 133 9 70 25 168 34 217 15
77 20 90 38 93 21 3 22 -2 26 -130 8 -204 34 -245 152 -236 l64 6 5 -35 c9
-51 23 -63 76 -63 55 0 149 42 204 90 35 30 37 36 37 91 0 32 3 59 6 59 3 0
17 -9 31 -20 15 -11 51 -28 81 -36 34 -10 67 -29 88 -49 46 -47 110 -68 183
-63 34 2 63 7 67 11 4 3 13 48 20 99 21 136 66 370 71 365 2 -3 11 -47 19 -98
8 -50 21 -101 28 -111 24 -34 76 -66 138 -84 33 -10 64 -26 69 -36 23 -44 191
-97 261 -84 33 6 33 6 55 109 13 56 42 172 67 257 l44 155 4 -245 3 -245 60 0
c33 0 79 4 103 9 l42 8 0 -61 c0 -59 1 -61 26 -61 34 0 170 46 214 72 19 12
51 36 71 55 36 34 36 35 32 106 l-4 72 25 -46 c37 -68 113 -128 195 -154 13
-4 46 -25 75 -46 55 -43 127 -69 188 -69 45 0 40 -20 68 245 26 251 77 614 90
640 6 14 7 3 4 -35 -15 -143 40 -480 96 -591 57 -113 156 -207 257 -245 27
-10 69 -33 96 -52 86 -62 203 -79 303 -45 70 24 154 109 183 188 25 64 38 167
27 209 -6 25 -7 25 -47 11 -23 -8 -44 -15 -48 -15 -3 0 -6 51 -6 113 0 61 -3
119 -7 128 -6 15 -15 14 -87 -12 -101 -35 -168 -45 -214 -30 -32 11 -37 17
-46 62 -50 231 71 641 259 881 65 83 182 183 300 255 41 26 87 57 101 70 l26
24 -24 -108 c-39 -178 -90 -467 -113 -643 -31 -232 -40 -647 -15 -739 41 -160
138 -270 237 -271 18 0 33 -9 44 -25 9 -13 32 -34 51 -46 29 -18 45 -21 106
-17 59 4 88 13 162 48 50 24 93 45 96 47 3 2 28 -14 55 -37 57 -47 126 -72
186 -68 l43 3 17 170 c24 236 61 506 109 795 54 328 45 305 88 224 26 -49 67
-99 151 -183 150 -150 183 -218 149 -308 -27 -73 -137 -137 -295 -174 l-94
-21 0 -42 c0 -55 25 -157 51 -209 40 -79 119 -147 173 -147 15 0 44 -16 70
-40 82 -70 143 -71 280 -5 189 93 345 264 398 438 29 97 22 186 -22 270 -18
34 -54 105 -81 157 -36 71 -74 124 -150 210 l-101 114 4 61 c6 73 37 150 93
230 75 106 149 167 363 297 53 32 62 42 73 80 26 98 -8 271 -76 379 -18 30
-50 86 -70 125 -19 38 -53 91 -74 116 l-38 46 -84 -60z m-3629 -21 c29 -8 45
-17 44 -27 -1 -8 -15 -96 -32 -195 -87 -506 -132 -1001 -138 -1544 -4 -354 -5
-366 -25 -387 -28 -30 -140 -88 -208 -108 -99 -29 -91 -48 -91 219 0 323 28
765 66 1035 12 87 12 106 1 117 -18 19 -43 7 -56 -25 -6 -15 -37 -117 -70
-227 -33 -110 -96 -315 -140 -455 -45 -140 -97 -320 -117 -400 -19 -80 -38
-158 -42 -175 -8 -30 -8 -30 -80 -29 -56 1 -84 8 -136 32 -35 17 -69 38 -74
49 -5 10 -14 52 -21 93 -27 173 -29 274 -15 600 17 376 16 475 -5 475 -8 0
-23 -13 -32 -30 -31 -53 -247 -1028 -265 -1193 -4 -35 -13 -70 -21 -78 -21
-20 -119 -18 -168 5 -42 19 -105 82 -105 105 0 30 105 579 156 821 72 336 261
1089 285 1136 10 20 33 49 51 64 79 67 263 130 359 123 38 -3 43 -6 40 -23 -7
-34 -6 -1157 0 -1161 14 -8 29 29 98 237 39 119 118 348 175 510 99 278 107
296 145 330 58 52 141 89 256 113 39 8 121 4 165 -7z m3735 -52 c41 -53 77
-168 83 -265 6 -110 -9 -150 -73 -188 -267 -159 -393 -286 -446 -449 -24 -72
-24 -140 0 -203 21 -56 52 -97 166 -225 101 -113 142 -172 166 -241 35 -100
20 -205 -48 -335 -70 -135 -187 -245 -341 -321 -95 -47 -107 -50 -161 -46 -73
5 -115 34 -154 106 -24 44 -53 149 -43 159 2 2 36 12 75 23 209 58 330 163
331 287 0 90 -33 146 -170 288 -141 146 -176 202 -186 301 -30 283 182 664
541 978 84 74 208 166 222 166 7 0 24 -16 38 -35z m-2065 -52 c34 -90 51 -179
51 -263 0 -91 -17 -141 -58 -166 -267 -165 -404 -298 -495 -479 -45 -90 -96
-228 -124 -335 -38 -146 -40 -329 -5 -440 31 -100 53 -141 95 -178 65 -57 158
-64 283 -21 31 10 58 19 61 19 2 0 3 -38 0 -84 -4 -73 -10 -96 -42 -161 -64
-129 -156 -183 -295 -173 -121 9 -245 97 -306 219 -32 63 -72 223 -85 341 -39
369 59 795 261 1126 100 162 281 378 418 496 76 65 198 155 213 156 4 0 16
-26 28 -57z m-3443 33 c2 -1 -6 -48 -17 -103 -79 -411 -122 -964 -124 -1623
l-1 -435 -60 -40 c-77 -52 -167 -82 -200 -67 -41 19 -48 73 -41 310 4 153 3
212 -5 212 -26 0 -255 -64 -266 -74 -11 -10 -73 -350 -73 -401 0 -55 -122 -31
-194 38 -74 71 -76 93 -32 319 76 386 204 855 351 1286 92 270 129 367 155
410 43 70 218 152 370 172 54 7 128 5 137 -4z m2426 -19 c29 -13 63 -33 76
-44 l25 -20 -57 -249 c-131 -581 -226 -1159 -290 -1764 l-12 -115 -42 -3 c-89
-6 -225 84 -242 159 -16 73 53 494 229 1384 60 308 115 589 121 624 l12 64 64
-6 c36 -4 88 -17 116 -30z m2108 -22 c59 -20 116 -68 124 -103 3 -17 -8 -89
-30 -182 -132 -569 -266 -1379 -310 -1872 l-7 -78 -39 0 c-54 0 -138 34 -186
75 l-41 35 -98 -47 c-85 -40 -110 -47 -177 -51 l-78 -5 -48 50 c-31 32 -57 72
-71 109 -64 170 -43 629 51 1122 20 105 200 935 204 940 7 9 121 -23 173 -49
75 -37 105 -76 99 -129 -3 -19 -27 -123 -55 -230 -125 -482 -209 -1012 -200
-1253 7 -168 28 -194 137 -166 l55 14 37 225 c21 124 69 378 108 565 116 564
198 968 205 1008 7 37 7 37 55 37 26 0 68 -7 92 -15z"/>
<path d="M3885 3596 c-9 -14 -38 -96 -65 -183 -177 -583 -197 -653 -188 -653
2 0 50 13 108 29 91 24 106 31 112 52 7 26 72 682 73 738 0 42 -18 50 -40 17z"/>
</g>
</svg>
